<!-- flowbite.com -->
<svg class="w-6 h-6 text-gray-800 dark:text-white" aria-hidden="true" xmlns="http://www.w3.org/2000/svg" width="24" height="24" fill="currentColor" viewBox="0 0 24 24">
  <path fill-rule="evenodd" d="M4 3a1 1 0 0 0-1 1v8a1 1 0 0 0 1 1h1v2a1 1 0 0 0 1.707.707L9.414 13H15a1 1 0 0 0 1-1V4a1 1 0 0 0-1-1H4Z" clip-rule="evenodd"/>
  <path fill-rule="evenodd" d="M8.023 17.215c.033-.03.066-.062.098-.094L10.243 15H15a3 3 0 0 0 3-3V8h2a1 1 0 0 1 1 1v8a1 1 0 0 1-1 1h-1v2a1 1 0 0 1-1.707.707L14.586 18H9a1 1 0 0 1-.977-.785Z" clip-rule="evenodd"/>
</svg>
